<svg xmlns="http://www.w3.org/2000/svg" viewBox="0 0 512 512">
  <path id="cloud-shape"
    d="M 118 310
       Q 118 335 143 335
       L 375 335
       Q 402 335 402 310
       L 402 255
       C 402 188 388 178 375 188
       C 362 198 342 218 330 212
       C 318 206 296 108 256 110
       C 216 112 200 220 182 215
       C 164 210 162 190 138 190
       C 118 190 118 248 118 268
       L 118 310 Z"
    fill="white"
  />
  <polygon
    points="238,335 270,335 256,402 294,402 228,476 228,402"
    fill="#FFD600"
  />
  <text
    x="258" y="244"
    font-family="'Arial Black', 'Helvetica Neue', Arial, sans-serif"
    font-weight="900"
    font-size="112"
    fill="#5B21B6"
    text-anchor="middle"
    dominant-baseline="central"
  >S</text>
  <path
    d="M 118 310
       Q 118 335 143 335
       L 375 335
       Q 402 335 402 310
       L 402 255
       C 402 188 388 178 375 188
       C 362 198 342 218 330 212
       C 318 206 296 108 256 110
       C 216 112 200 220 182 215
       C 164 210 162 190 138 190
       C 118 190 118 248 118 268
       L 118 310 Z"
    fill="none"
    stroke="#1c1f3a"
    stroke-width="22"
    stroke-linejoin="round"
    stroke-linecap="round"
  />
</svg>
